<svg width="48" height="48" viewBox="0 0 48 48" fill="none" xmlns="http://www.w3.org/2000/svg">
<path d="M21.3139 30.3352H18.0177L20.0778 17.6745H23.3744L21.3139 30.3352ZM15.2446 17.6745L12.1022 26.3826L11.7303 24.5074L11.7306 24.5081L10.6215 18.8144C10.6215 18.8144 10.4874 17.6745 9.05787 17.6745H3.86272L3.80176 17.8888C3.80176 17.8888 5.39045 18.2194 7.24973 19.336L10.1135 30.3355H13.5479L18.7922 17.6745H15.2446ZM41.1713 30.3352H44.198L41.5591 17.6741H38.9094C37.6858 17.6741 37.3877 18.6177 37.3877 18.6177L32.4716 30.3352H35.9078L36.5949 28.4546H40.7852L41.1713 30.3352ZM37.5442 25.8567L39.2761 21.1187L40.2505 25.8567H37.5442ZM32.7294 20.7191L33.1998 18.0003C33.1998 18.0003 31.7482 17.4482 30.2351 17.4482C28.5993 17.4482 24.7148 18.1632 24.7148 21.6396C24.7148 24.9104 29.2739 24.9511 29.2739 26.6691C29.2739 28.3872 25.1845 28.0793 23.8349 26.996L23.3449 29.8387C23.3449 29.8387 24.8167 30.5537 27.0655 30.5537C29.3149 30.5537 32.7084 29.389 32.7084 26.219C32.7084 22.9272 28.1082 22.6207 28.1082 21.1895C28.1086 19.758 31.3188 19.9418 32.7294 20.7191Z" fill="#2566AF"/>
<path d="M11.7306 24.5075L10.6215 18.8138C10.6215 18.8138 10.4874 17.6738 9.05788 17.6738H3.86272L3.80176 17.8882C3.80176 17.8882 6.29875 18.4057 8.69381 20.3446C10.9839 22.1977 11.7306 24.5075 11.7306 24.5075Z" fill="#E6A540"/>
</svg>
